<svg width="22" height="22" viewBox="0 0 22 22" fill="none" xmlns="http://www.w3.org/2000/svg">
<path d="M17.4165 10.0834H6.54484L9.87234 6.0867C10.0279 5.8995 10.1028 5.65816 10.0804 5.41577C10.0581 5.17337 9.94037 4.94979 9.75317 4.7942C9.56597 4.6386 9.32463 4.56375 9.08224 4.58609C8.83985 4.60844 8.61626 4.72616 8.46067 4.91336L3.87734 10.4134C3.8465 10.4571 3.81893 10.5031 3.79484 10.5509C3.79484 10.5967 3.79484 10.6242 3.73067 10.67C3.68912 10.7751 3.66737 10.887 3.6665 11C3.66737 11.113 3.68912 11.2249 3.73067 11.33C3.73067 11.3759 3.73067 11.4034 3.79484 11.4492C3.81893 11.497 3.8465 11.5429 3.87734 11.5867L8.46067 17.0867C8.54686 17.1902 8.65479 17.2734 8.77678 17.3304C8.89877 17.3875 9.03184 17.4169 9.1665 17.4167C9.38069 17.4171 9.58825 17.3425 9.75317 17.2059C9.84599 17.1289 9.92272 17.0344 9.97896 16.9277C10.0352 16.8211 10.0698 16.7044 10.0809 16.5843C10.092 16.4643 10.0793 16.3432 10.0435 16.2281C10.0077 16.1129 9.94952 16.006 9.87234 15.9134L6.54484 11.9167H17.4165C17.6596 11.9167 17.8928 11.8201 18.0647 11.6482C18.2366 11.4763 18.3332 11.2431 18.3332 11C18.3332 10.7569 18.2366 10.5238 18.0647 10.3518C17.8928 10.1799 17.6596 10.0834 17.4165 10.0834Z" fill="white"/>
</svg>
