<svg width="16" height="15" viewBox="0 0 16 15" fill="none" xmlns="http://www.w3.org/2000/svg">
<path fill-rule="evenodd" clip-rule="evenodd" d="M10.9246 14.47H4.33825C1.91892 14.47 0.0629044 13.677 0.590099 10.485L1.20396 6.15915C1.52894 4.56645 2.64834 3.95691 3.63051 3.95691H11.6613C12.6578 3.95691 13.7122 4.61234 14.0878 6.15915L14.7016 10.485C15.1494 13.3165 13.3439 14.47 10.9246 14.47Z" stroke="black" stroke-linecap="round" stroke-linejoin="round"/>
<path d="M11.0331 3.7996C11.0331 2.09103 9.50694 0.70596 7.62433 0.70596C6.71778 0.70248 5.84705 1.02688 5.20466 1.60742C4.56228 2.18796 4.20116 2.97684 4.20117 3.7996" stroke="black" stroke-linecap="round" stroke-linejoin="round"/>
<path d="M9.96379 7.02368H9.92773" stroke="black" stroke-linecap="round" stroke-linejoin="round"/>
<path d="M5.36424 7.02368H5.32812" stroke="black" stroke-linecap="round" stroke-linejoin="round"/>
</svg>
