<svg width="17" height="19" viewBox="0 0 17 19" fill="none" xmlns="http://www.w3.org/2000/svg">
<path fill-rule="evenodd" clip-rule="evenodd" d="M11.9974 18.0212H5.04914C2.49689 18.0212 0.538888 17.0406 1.09505 13.0934L1.74264 7.74414C2.08548 5.77463 3.26638 5.02087 4.30252 5.02087H12.7745C13.8259 5.02087 14.9382 5.83137 15.3344 7.74414L15.9819 13.0934C16.4543 16.5948 14.5497 18.0212 11.9974 18.0212Z" stroke="#9FA29E" stroke-opacity="0.9" stroke-width="1.5" stroke-linecap="round" stroke-linejoin="round"/>
<path d="M12.1116 4.82559C12.1116 2.7128 10.5016 1.00003 8.51554 1.00003C7.55918 0.995731 6.64061 1.39687 5.96293 2.11477C5.28525 2.83266 4.90429 3.80817 4.9043 4.82559" stroke="#9FA29E" stroke-opacity="0.9" stroke-width="1.5" stroke-linecap="round" stroke-linejoin="round"/>
<path d="M10.9838 8.81348H10.9458" stroke="#9FA29E" stroke-opacity="0.9" stroke-width="1.5" stroke-linecap="round" stroke-linejoin="round"/>
<path d="M6.13087 8.81348H6.09277" stroke="#9FA29E" stroke-opacity="0.9" stroke-width="1.5" stroke-linecap="round" stroke-linejoin="round"/>
</svg>
