<svg width="20" height="20" viewBox="0 0 20 20" fill="none" xmlns="http://www.w3.org/2000/svg">
<path d="M2.29185 5.13925C2.29185 4.75591 2.57935 4.44425 2.93435 4.44425H5.15518C5.59602 4.43175 5.98518 4.12925 6.13518 3.68091L6.16018 3.60175L6.25602 3.29175C6.31435 3.10175 6.36518 2.93591 6.43685 2.78758C6.71852 2.20258 7.24018 1.79675 7.84268 1.69258C7.99602 1.66675 8.15685 1.66675 8.34268 1.66675H11.241C11.4268 1.66675 11.5885 1.66675 11.741 1.69258C12.3435 1.79675 12.866 2.20258 13.1468 2.78758C13.2185 2.93591 13.2693 3.10175 13.3277 3.29175L13.4235 3.60175L13.4485 3.68091C13.5985 4.12925 14.0652 4.43258 14.5068 4.44425H16.6485C17.0043 4.44425 17.2918 4.75508 17.2918 5.13925C17.2918 5.52258 17.0043 5.83341 16.6493 5.83341H2.93352C2.57852 5.83341 2.29185 5.52258 2.29185 5.13925ZM9.67268 18.3334H10.3285C12.5843 18.3334 13.7118 18.3334 14.446 17.6142C15.1793 16.8942 15.2543 15.7142 15.4043 13.3551L15.621 9.95425C15.7027 8.67341 15.7435 8.03341 15.3752 7.62758C15.0068 7.22175 14.386 7.22175 13.1427 7.22175H6.85852C5.61601 7.22175 4.99435 7.22175 4.62602 7.62758C4.25852 8.03341 4.29935 8.67341 4.38018 9.95425L4.59685 13.3542C4.74685 15.7151 4.82185 16.8942 5.55518 17.6142C6.28768 18.3334 7.41685 18.3334 9.67268 18.3334Z" fill="#FFFEFE"/>
</svg>
