<svg width="83" height="83" viewBox="0 0 83 83" fill="none" xmlns="http://www.w3.org/2000/svg">
<path d="M24.9396 25.3567C26.5017 23.7947 28.9126 23.6729 30.3245 25.0848L58.4456 53.2059C59.8575 54.6178 59.7358 57.0287 58.1737 58.5908C56.6116 60.1529 54.2007 60.2746 52.7888 58.8627L24.6677 30.7416C23.2558 29.3297 23.3775 26.9188 24.9396 25.3567Z" fill="#87220F"/>
<path d="M24.7278 58.8939C23.1657 57.3318 23.044 54.9209 24.4559 53.509L52.577 25.3879C53.9889 23.976 56.3998 24.0977 57.9619 25.6598C59.524 27.2219 59.6457 29.6328 58.2338 31.0447L30.1127 59.1658C28.7008 60.5777 26.2899 60.456 24.7278 58.8939Z" fill="#87220F"/>
<path d="M83 41.5C83 64.4198 64.4198 83 41.5 83C18.5802 83 0 64.4198 0 41.5C0 18.5802 18.5802 0 41.5 0C64.4198 0 83 18.5802 83 41.5ZM8.16809 41.5C8.16809 59.9087 23.0913 74.8319 41.5 74.8319C59.9087 74.8319 74.8319 59.9087 74.8319 41.5C74.8319 23.0913 59.9087 8.16809 41.5 8.16809C23.0913 8.16809 8.16809 23.0913 8.16809 41.5Z" fill="#F7B0A2"/>
</svg>
