<svg width="46" height="46" viewBox="0 0 46 46" fill="none" xmlns="http://www.w3.org/2000/svg">
<rect width="45.6048" height="45.6048" rx="22.8024" fill="#3D5C98"/>
<path d="M28.0432 13.0342L25.1132 13.03C21.8215 13.03 19.6942 14.9966 19.6942 18.0404V20.3506H16.7483C16.4937 20.3506 16.2876 20.5365 16.2876 20.7659V24.113C16.2876 24.3424 16.494 24.5282 16.7483 24.5282H19.6942V32.9741C19.6942 33.2035 19.9004 33.3892 20.155 33.3892H23.9986C24.2531 33.3892 24.4593 33.2033 24.4593 32.9741V24.5282H27.9038C28.1583 24.5282 28.3645 24.3424 28.3645 24.113L28.3659 20.7659C28.3659 20.6558 28.3172 20.5503 28.231 20.4723C28.1447 20.3944 28.0272 20.3506 27.905 20.3506H24.4593V18.3922C24.4593 17.4509 24.7082 16.9731 26.0689 16.9731L28.0427 16.9725C28.297 16.9725 28.5032 16.7865 28.5032 16.5573V13.4493C28.5032 13.2204 28.2973 13.0346 28.0432 13.0342Z" fill="white"/>
</svg>
