<svg width="16" height="14" viewBox="0 0 16 14" fill="none" xmlns="http://www.w3.org/2000/svg">
<path opacity="0.4" d="M6.55093 10.0756H1.57982C0.950659 10.0756 0.439941 10.5773 0.439941 11.1954C0.439941 11.8127 0.950659 12.3153 1.57982 12.3153H6.55093C7.18008 12.3153 7.69083 11.8127 7.69083 11.1954C7.69083 10.5773 7.18008 10.0756 6.55093 10.0756Z" fill="white"/>
<path opacity="0.4" d="M15.5601 2.83434C15.5601 2.21704 15.0494 1.71527 14.421 1.71527H9.44996C8.82081 1.71527 8.31006 2.21704 8.31006 2.83434C8.31006 3.45246 8.82081 3.95422 9.44996 3.95422H14.421C15.0494 3.95422 15.5601 3.45246 15.5601 2.83434Z" fill="white"/>
<path d="M5.63953 2.83423C5.63953 4.24543 4.47613 5.38925 3.03973 5.38925C1.60418 5.38925 0.439941 4.24543 0.439941 2.83423C0.439941 1.42385 1.60418 0.280029 3.03973 0.280029C4.47613 0.280029 5.63953 1.42385 5.63953 2.83423Z" fill="white"/>
<path d="M15.56 11.1658C15.56 12.5762 14.3966 13.7201 12.9602 13.7201C11.5246 13.7201 10.3604 12.5762 10.3604 11.1658C10.3604 9.7546 11.5246 8.61084 12.9602 8.61084C14.3966 8.61084 15.56 9.7546 15.56 11.1658Z" fill="white"/>
</svg>
