<svg width="15" height="15" viewBox="0 0 15 15" fill="none" xmlns="http://www.w3.org/2000/svg">
<path d="M12.5032 8.12689V12.5019C12.5032 12.6677 12.4373 12.8266 12.3201 12.9438C12.2029 13.061 12.0439 13.1269 11.8782 13.1269H3.12817C2.96241 13.1269 2.80344 13.061 2.68623 12.9438C2.56902 12.8266 2.50317 12.6677 2.50317 12.5019V8.12689H12.5032ZM9.06567 1.25189C9.43483 1.25177 9.79801 1.34507 10.1214 1.5231C10.4448 1.70113 10.7179 1.95811 10.9152 2.2701C11.1125 2.58209 11.2277 2.93895 11.2499 3.30743C11.2722 3.67591 11.2009 4.04404 11.0425 4.37752L13.1282 4.37689C13.2939 4.37689 13.4529 4.44274 13.5701 4.55995C13.6873 4.67716 13.7532 4.83613 13.7532 5.00189V6.87689C13.7532 7.04265 13.6873 7.20163 13.5701 7.31884C13.4529 7.43605 13.2939 7.50189 13.1282 7.50189H1.87817C1.71241 7.50189 1.55344 7.43605 1.43623 7.31884C1.31902 7.20163 1.25317 7.04265 1.25317 6.87689V5.00189C1.25317 4.83613 1.31902 4.67716 1.43623 4.55995C1.55344 4.44274 1.71241 4.37689 1.87817 4.37689L3.9638 4.37752C3.74115 3.90981 3.69169 3.37827 3.82424 2.87752C3.95678 2.37677 4.26273 1.9393 4.68761 1.64299C5.11249 1.34668 5.62874 1.21077 6.14444 1.25944C6.66015 1.30811 7.14185 1.53821 7.5038 1.90877C7.70694 1.70035 7.94986 1.53482 8.21814 1.42199C8.48643 1.30915 8.77463 1.25131 9.06567 1.25189ZM5.94067 2.50189C5.69986 2.50185 5.46826 2.59448 5.2939 2.76058C5.11953 2.92667 5.01576 3.1535 5.00411 3.39403C4.99246 3.63456 5.07381 3.87035 5.23131 4.05253C5.3888 4.2347 5.61036 4.34928 5.85005 4.37252L5.94067 4.37689H6.87817V3.43939C6.87816 3.20634 6.79135 2.98165 6.63466 2.80913C6.47797 2.63662 6.26265 2.52864 6.03067 2.50627L5.94067 2.50189ZM9.06567 2.50189L8.97505 2.50627C8.75873 2.52728 8.55643 2.62279 8.40275 2.77647C8.24907 2.93015 8.15355 3.13245 8.13255 3.34877L8.12817 3.43939V4.37689H9.06567L9.15567 4.37252C9.38757 4.35004 9.60278 4.24202 9.75937 4.06951C9.91596 3.89701 10.0027 3.67237 10.0027 3.43939C10.0027 3.20642 9.91596 2.98178 9.75937 2.80928C9.60278 2.63677 9.38757 2.52875 9.15567 2.50627L9.06567 2.50189Z" fill="black"/>
</svg>
