<svg width="46" height="47" viewBox="0 0 46 47" fill="none" xmlns="http://www.w3.org/2000/svg">
<rect x="0.39502" y="0.814377" width="45.6048" height="45.6048" rx="22.8024" fill="#EF403B"/>
<path d="M31.9791 21.9371C32.0934 22.5361 32.1559 23.1632 32.1559 23.8182C32.156 28.9356 28.6599 32.5748 23.3808 32.5748C18.3305 32.5748 14.2397 28.566 14.2397 23.6168C14.2397 18.6675 18.3305 14.6587 23.3808 14.6587C25.8491 14.6587 27.9112 15.5488 29.4941 16.9933L26.917 19.5185V19.5128C25.9573 18.6169 24.7405 18.1579 23.3808 18.1579C20.3644 18.1579 17.9134 20.6549 17.9134 23.6113C17.9134 26.567 20.3644 29.0701 23.3808 29.0701C26.1175 29.0701 27.9798 27.5359 28.3632 25.4309H23.3808V21.9371H31.9791Z" fill="white"/>
</svg>
