<svg width="19" height="17" viewBox="0 0 19 17" fill="none" xmlns="http://www.w3.org/2000/svg">
<path d="M5.8007 14.7752C3.1331 12.6383 0 10.1291 0 5.77924C0 0.977111 5.225 -2.42872 9.5 2.18875L11.4 4.16174C11.5351 4.29256 11.7137 4.36378 11.8983 4.3604C12.0829 4.35701 12.259 4.27929 12.3895 4.14359C12.5201 4.0079 12.5949 3.82484 12.5981 3.63297C12.6014 3.4411 12.5329 3.25541 12.407 3.11501L10.5735 1.20621C14.6006 -1.85795 19 1.37309 19 5.77924C19 10.1291 15.8669 12.6383 13.1993 14.7752C12.9219 14.9974 12.6493 15.2146 12.3861 15.4309C11.4 16.2386 10.45 17 9.5 17C8.55 17 7.6 16.2396 6.6139 15.4299C6.35075 15.2146 6.0781 14.9974 5.8007 14.7752Z" fill="#C3C3C3"/>
</svg>
