<svg width="15" height="15" viewBox="0 0 15 15" fill="none" xmlns="http://www.w3.org/2000/svg">
<g clip-path="url(#clip0_181_79)">
<mask id="mask0_181_79" style="mask-type:luminance" maskUnits="userSpaceOnUse" x="0" y="0" width="15" height="15">
<path d="M7.50001 13.75C8.32092 13.7511 9.13396 13.5899 9.89238 13.2757C10.6508 12.9616 11.3397 12.5006 11.9194 11.9194C12.5006 11.3397 12.9616 10.6508 13.2757 9.89238C13.5899 9.13396 13.7511 8.32092 13.75 7.50001C13.7511 6.67909 13.5899 5.86606 13.2757 5.10764C12.9615 4.34922 12.5006 3.66035 11.9194 3.08063C11.3397 2.49939 10.6508 2.03844 9.89238 1.72428C9.13396 1.41012 8.32092 1.24894 7.50001 1.25001C6.67909 1.24896 5.86606 1.41015 5.10764 1.72431C4.34922 2.03847 3.66035 2.4994 3.08063 3.08063C2.4994 3.66035 2.03847 4.34922 1.72431 5.10764C1.41015 5.86606 1.24896 6.67909 1.25001 7.50001C1.24894 8.32092 1.41012 9.13396 1.72428 9.89238C2.03844 10.6508 2.49939 11.3397 3.08063 11.9194C3.66035 12.5006 4.34922 12.9615 5.10764 13.2757C5.86606 13.5899 6.67909 13.7511 7.50001 13.75Z" fill="white" stroke="white" stroke-width="1.25" stroke-linejoin="round"/>
<path d="M7.5 8.94531V7.69531C7.87084 7.69531 8.23335 7.58535 8.54169 7.37932C8.85004 7.17329 9.09036 6.88046 9.23227 6.53784C9.37419 6.19523 9.41132 5.81823 9.33897 5.45452C9.26663 5.0908 9.08805 4.75671 8.82583 4.49449C8.5636 4.23226 8.22951 4.05369 7.86579 3.98134C7.50208 3.90899 7.12508 3.94612 6.78247 4.08804C6.43986 4.22995 6.14702 4.47028 5.94099 4.77862C5.73497 5.08696 5.625 5.44947 5.625 5.82031" stroke="black" stroke-width="1.25" stroke-linecap="round" stroke-linejoin="round"/>
<path fill-rule="evenodd" clip-rule="evenodd" d="M7.5 11.7578C7.7072 11.7578 7.90591 11.6755 8.05243 11.529C8.19894 11.3825 8.28125 11.1838 8.28125 10.9766C8.28125 10.7694 8.19894 10.5706 8.05243 10.4241C7.90591 10.2776 7.7072 10.1953 7.5 10.1953C7.2928 10.1953 7.09409 10.2776 6.94757 10.4241C6.80106 10.5706 6.71875 10.7694 6.71875 10.9766C6.71875 11.1838 6.80106 11.3825 6.94757 11.529C7.09409 11.6755 7.2928 11.7578 7.5 11.7578Z" fill="black"/>
</mask>
<g mask="url(#mask0_181_79)">
<path d="M0 0H15V15H0V0Z" fill="black"/>
</g>
</g>
<defs>
<clipPath id="clip0_181_79">
<rect width="15" height="15" fill="white"/>
</clipPath>
</defs>
</svg>
