<svg width="15" height="16" viewBox="0 0 15 16" fill="none" xmlns="http://www.w3.org/2000/svg">
<path d="M2.25 15.375C1.76875 15.375 1.35663 15.2035 1.01363 14.8605C0.670626 14.5175 0.499418 14.1057 0.500001 13.625V5.75C0.500001 5.47292 0.562126 5.21042 0.686376 4.9625C0.810626 4.71458 0.981835 4.51042 1.2 4.35L6.45 0.4125C6.61042 0.295833 6.77813 0.208333 6.95313 0.15C7.12813 0.0916666 7.31042 0.0625 7.5 0.0625C7.68959 0.0625 7.87188 0.0916666 8.04688 0.15C8.22188 0.208333 8.38959 0.295833 8.55 0.4125L13.8 4.35C14.0188 4.51042 14.1903 4.71458 14.3145 4.9625C14.4388 5.21042 14.5006 5.47292 14.5 5.75V13.625C14.5 14.1062 14.3285 14.5184 13.9855 14.8614C13.6425 15.2044 13.2307 15.3756 12.75 15.375H9.25V9.25H5.75V15.375H2.25Z" fill="#C3C3C3"/>
</svg>
