<svg width="28" height="28" viewBox="0 0 28 28" fill="none" xmlns="http://www.w3.org/2000/svg">
<rect width="28" height="28" rx="14" fill="black"/>
<path d="M17.7711 9.53601C15.6884 7.48735 12.3118 7.48735 10.2291 9.53601C9.73462 10.0191 9.34171 10.5962 9.07345 11.2333C8.80518 11.8704 8.66699 12.5547 8.66699 13.246C8.66699 13.9373 8.80518 14.6216 9.07345 15.2587C9.34171 15.8959 9.73462 16.4729 10.2291 16.956L13.9998 20.666L17.7711 16.956C18.2656 16.4729 18.6585 15.8959 18.9268 15.2587C19.195 14.6216 19.3332 13.9373 19.3332 13.246C19.3332 12.5547 19.195 11.8704 18.9268 11.2333C18.6585 10.5962 18.2656 10.0191 17.7711 9.53601ZM13.9998 14.9993C13.5544 14.9993 13.1364 14.826 12.8211 14.5113C12.5089 14.1985 12.3336 13.7746 12.3336 13.3327C12.3336 12.8907 12.5089 12.4668 12.8211 12.154C13.1358 11.8393 13.5544 11.666 13.9998 11.666C14.4451 11.666 14.8638 11.8393 15.1784 12.154C15.4906 12.4668 15.6659 12.8907 15.6659 13.3327C15.6659 13.7746 15.4906 14.1985 15.1784 14.5113C14.8638 14.826 14.4451 14.9993 13.9998 14.9993Z" fill="white"/>
</svg>
