<svg width="15" height="15" viewBox="0 0 15 15" fill="none" xmlns="http://www.w3.org/2000/svg">
<path d="M5.81876 4.19386C5.76082 4.25168 5.71486 4.32036 5.68349 4.39597C5.65213 4.47157 5.63599 4.55263 5.63599 4.63448C5.63599 4.71634 5.65213 4.79739 5.68349 4.873C5.71486 4.9486 5.76082 5.01728 5.81876 5.07511L8.24376 7.50011L5.81876 9.92511C5.7019 10.042 5.63625 10.2005 5.63625 10.3657C5.63625 10.531 5.7019 10.6895 5.81876 10.8064C5.93562 10.9232 6.09412 10.9889 6.25939 10.9889C6.42466 10.9889 6.58315 10.9232 6.70001 10.8064L9.56876 7.93761C9.6267 7.87978 9.67267 7.8111 9.70403 7.7355C9.7354 7.65989 9.75154 7.57884 9.75154 7.49698C9.75154 7.41512 9.7354 7.33407 9.70403 7.25847C9.67267 7.18286 9.6267 7.11418 9.56876 7.05636L6.70001 4.18761C6.46251 3.95011 6.06251 3.95011 5.81876 4.19386Z" fill="#9F9F9F"/>
</svg>
