<svg width="17" height="19" viewBox="0 0 17 19" fill="none" xmlns="http://www.w3.org/2000/svg">
<path d="M16.0501 12.999C15.982 12.917 15.9151 12.835 15.8495 12.7558C14.9472 11.6644 14.4012 11.0057 14.4012 7.91598C14.4012 6.31637 14.0186 5.00387 13.2643 4.01949C12.7081 3.29228 11.9563 2.74063 10.9654 2.33293C10.9526 2.32584 10.9412 2.31653 10.9317 2.30545C10.5753 1.11189 9.59995 0.3125 8.49991 0.3125C7.39987 0.3125 6.42493 1.11189 6.0685 2.30422C6.05899 2.31489 6.04776 2.3239 6.03528 2.33088C3.72282 3.28285 2.59899 5.10928 2.59899 7.91475C2.59899 11.0057 2.05389 11.6644 1.15073 12.7546C1.0851 12.8338 1.01825 12.9141 0.950162 12.9978C0.774288 13.2099 0.662857 13.468 0.629057 13.7414C0.595257 14.0149 0.640503 14.2923 0.75944 14.5408C1.01251 15.074 1.55186 15.405 2.16751 15.405H14.8368C15.4496 15.405 15.9853 15.0744 16.2391 14.5437C16.3586 14.2951 16.4043 14.0175 16.3708 13.7437C16.3372 13.4699 16.226 13.2115 16.0501 12.999ZM8.49991 18.6875C9.0926 18.687 9.67411 18.5261 10.1828 18.2219C10.6914 17.9177 11.1083 17.4815 11.389 16.9595C11.4023 16.9345 11.4088 16.9065 11.408 16.8782C11.4072 16.8499 11.3991 16.8223 11.3845 16.7981C11.3699 16.7739 11.3493 16.7538 11.3246 16.7399C11.3 16.726 11.2722 16.7187 11.2439 16.7188H5.75678C5.72845 16.7187 5.70058 16.7259 5.67587 16.7398C5.65117 16.7536 5.63048 16.7737 5.61582 16.7979C5.60116 16.8222 5.59303 16.8498 5.59221 16.8781C5.5914 16.9064 5.59793 16.9345 5.61118 16.9595C5.89194 17.4814 6.30871 17.9176 6.81729 18.2218C7.32586 18.526 7.90729 18.6869 8.49991 18.6875Z" fill="#C3C3C3"/>
</svg>
