<svg width="17" height="17" viewBox="0 0 17 17" fill="none" xmlns="http://www.w3.org/2000/svg">
<path d="M12.2365 14.3438L14.6979 11.9L13.9542 11.1562L12.2365 12.8385L11.5458 12.1479L10.8021 12.9094L12.2365 14.3438ZM4.25 6.375H12.75V4.95833H4.25V6.375ZM12.75 16.2917C11.7701 16.2917 10.9348 15.9462 10.2439 15.2554C9.55306 14.5645 9.20786 13.7294 9.20833 12.75C9.20833 11.7701 9.55376 10.9348 10.2446 10.2439C10.9355 9.55306 11.7706 9.20786 12.75 9.20833C13.7299 9.20833 14.5652 9.55376 15.2561 10.2446C15.9469 10.9355 16.2921 11.7706 16.2917 12.75C16.2917 13.7299 15.9462 14.5652 15.2554 15.2561C14.5645 15.9469 13.7294 16.2921 12.75 16.2917ZM2.125 15.5833V3.54167C2.125 3.15208 2.26383 2.81846 2.5415 2.54079C2.81917 2.26313 3.15256 2.12453 3.54167 2.125H13.4583C13.8479 2.125 14.1815 2.26383 14.4592 2.5415C14.7369 2.81917 14.8755 3.15256 14.875 3.54167V8.26979C14.5444 8.10451 14.199 7.98339 13.8387 7.90642C13.4784 7.82944 13.1155 7.7912 12.75 7.79167H4.25V9.20833H9.27917C9.07847 9.40903 8.89265 9.62743 8.72171 9.86354C8.55076 10.0997 8.40013 10.3535 8.26979 10.625H4.25V12.0417H7.84479C7.82118 12.1597 7.80631 12.2749 7.80017 12.3873C7.79403 12.4997 7.79119 12.6206 7.79167 12.75C7.79167 13.2458 7.85967 13.7211 7.99567 14.1759C8.13167 14.6306 8.33519 15.0644 8.60625 15.4771L8.5 15.5833L7.4375 14.5208L6.375 15.5833L5.3125 14.5208L4.25 15.5833L3.1875 14.5208L2.125 15.5833Z" fill="#FB6B4F"/>
</svg>
