<svg width="15" height="15" viewBox="0 0 15 15" fill="none" xmlns="http://www.w3.org/2000/svg">
<path d="M3.08241 2.67847C2.54961 2.67847 2.03864 2.89012 1.66189 3.26687C1.28514 3.64362 1.07349 4.15459 1.07349 4.6874V5.08918H13.9285V4.6874C13.9285 4.15459 13.7168 3.64362 13.3401 3.26687C12.9633 2.89012 12.4524 2.67847 11.9196 2.67847H3.08241ZM1.07349 10.3124V5.89275H13.9285V10.3124C13.9285 10.8452 13.7168 11.3562 13.3401 11.7329C12.9633 12.1097 12.4524 12.3213 11.9196 12.3213H3.08295C2.55015 12.3213 2.03917 12.1097 1.66242 11.7329C1.28568 11.3562 1.07349 10.8452 1.07349 10.3124ZM9.7767 8.83918C9.67014 8.83918 9.56794 8.88151 9.49259 8.95686C9.41724 9.03221 9.37492 9.13441 9.37492 9.24097C9.37492 9.34753 9.41724 9.44972 9.49259 9.52507C9.56794 9.60042 9.67014 9.64275 9.7767 9.64275H11.6517C11.7583 9.64275 11.8605 9.60042 11.9358 9.52507C12.0112 9.44972 12.0535 9.34753 12.0535 9.24097C12.0535 9.13441 12.0112 9.03221 11.9358 8.95686C11.8605 8.88151 11.7583 8.83918 11.6517 8.83918H9.7767Z" fill="black"/>
</svg>
