<svg width="9" height="9" viewBox="0 0 9 9" fill="none" xmlns="http://www.w3.org/2000/svg">
<g clip-path="url(#clip0_181_33)">
<path d="M4.4244 6.57811L7.08696 3.91555C6.63899 3.72852 6.23216 3.45526 5.8896 3.11131C5.54549 2.76867 5.2721 2.36171 5.085 1.91359L2.42244 4.57615C2.21472 4.78387 2.11068 4.88791 2.0214 5.00239C1.91596 5.13749 1.82554 5.28367 1.75176 5.43835C1.68948 5.56939 1.64304 5.70907 1.55016 5.98771L1.05984 7.45759C1.03727 7.52489 1.03392 7.59716 1.05017 7.66625C1.06642 7.73535 1.10161 7.79855 1.15181 7.84874C1.202 7.89894 1.2652 7.93413 1.3343 7.95038C1.4034 7.96663 1.47566 7.96328 1.54296 7.94071L3.01284 7.45039C3.29184 7.35751 3.43116 7.31107 3.5622 7.24879C3.717 7.17499 3.86316 7.08463 3.99816 6.97915C4.11264 6.88987 4.21668 6.78583 4.4244 6.57811ZM7.82568 3.17683C8.09115 2.91136 8.2403 2.55129 8.2403 2.17585C8.2403 1.80041 8.09115 1.44035 7.82568 1.17487C7.5602 0.909397 7.20014 0.760254 6.8247 0.760254C6.44926 0.760254 6.08919 0.909397 5.82372 1.17487L5.5044 1.49419L5.51808 1.53415C5.67544 1.98441 5.93295 2.39308 6.2712 2.72935C6.61753 3.07773 7.0405 3.34031 7.50636 3.49615L7.82568 3.17683Z" fill="black"/>
</g>
<defs>
<clipPath id="clip0_181_33">
<rect width="8.64" height="8.64" fill="white" transform="translate(0.320312 0.0400391)"/>
</clipPath>
</defs>
</svg>
