<svg width="15" height="15" viewBox="0 0 15 15" fill="none" xmlns="http://www.w3.org/2000/svg">
<path d="M11.875 5.625C11.875 6.19953 11.7618 6.76844 11.542 7.29924C11.3221 7.83004 10.9998 8.31234 10.5936 8.71859C10.1873 9.12485 9.70504 9.44711 9.17424 9.66697C8.64344 9.88684 8.07453 10 7.5 10C6.92547 10 6.35656 9.88684 5.82576 9.66697C5.29496 9.44711 4.81266 9.12485 4.40641 8.71859C4.00015 8.31234 3.67789 7.83004 3.45803 7.29924C3.23816 6.76844 3.125 6.19953 3.125 5.625C3.125 4.46468 3.58594 3.35188 4.40641 2.53141C5.22688 1.71094 6.33968 1.25 7.5 1.25C8.66032 1.25 9.77312 1.71094 10.5936 2.53141C11.4141 3.35188 11.875 4.46468 11.875 5.625Z" fill="black"/>
<path d="M4.43304 9.96313L4.19616 10.8269C3.80366 12.2594 3.60741 12.9756 3.86929 13.3675C3.96116 13.505 4.08429 13.615 4.22741 13.6881C4.63491 13.8956 5.26491 13.5675 6.52429 12.9113C6.94304 12.6925 7.15304 12.5838 7.37554 12.56C7.45822 12.5512 7.54161 12.5512 7.62429 12.56C7.84679 12.5838 8.05616 12.6931 8.47554 12.9113C9.73491 13.5675 10.3649 13.8956 10.7724 13.6881C10.9155 13.615 11.0387 13.505 11.1305 13.3675C11.393 12.9756 11.1962 12.2594 10.8037 10.8269L10.5668 9.96313C9.67054 10.5986 8.5986 10.9392 7.49991 10.9375C6.40121 10.9392 5.32927 10.5987 4.43304 9.96313Z" fill="black"/>
</svg>
