<svg width="18" height="18" viewBox="0 0 18 18" fill="none" xmlns="http://www.w3.org/2000/svg">
<path fill-rule="evenodd" clip-rule="evenodd" d="M0.75 2.25C0.75 2.05109 0.829018 1.86032 0.96967 1.71967C1.11032 1.57902 1.30109 1.5 1.5 1.5H9.75C9.94891 1.5 10.1397 1.57902 10.2803 1.71967C10.421 1.86032 10.5 2.05109 10.5 2.25V6H13.5C13.9925 6 14.4801 6.097 14.9351 6.28545C15.39 6.47391 15.8034 6.75013 16.1517 7.09835C16.4999 7.44657 16.7761 7.85997 16.9645 8.31494C17.153 8.76991 17.25 9.25754 17.25 9.75V12.75C17.2501 13.2328 17.0949 13.7029 16.8074 14.0907C16.5199 14.4786 16.1152 14.7637 15.6532 14.904C15.5157 15.3577 15.2383 15.7564 14.8607 16.0432C14.4831 16.3299 14.0245 16.49 13.5505 16.5007C13.0765 16.5113 12.6112 16.372 12.2211 16.1025C11.831 15.833 11.536 15.4471 11.3783 15H6.6225C6.46472 15.4471 6.16972 15.833 5.77962 16.1025C5.38951 16.372 4.92424 16.5113 4.45022 16.5007C3.9762 16.49 3.51766 16.3299 3.14004 16.0432C2.76243 15.7564 2.48505 15.3577 2.3475 14.904C1.88538 14.7638 1.48059 14.4788 1.19292 14.0909C0.905259 13.703 0.749971 13.2329 0.75 12.75V9.75H5.25C5.44891 9.75 5.63968 9.67098 5.78033 9.53033C5.92098 9.38968 6 9.19891 6 9C6 8.80109 5.92098 8.61032 5.78033 8.46967C5.63968 8.32902 5.44891 8.25 5.25 8.25H0.75V6.75H3.75C3.94891 6.75 4.13968 6.67098 4.28033 6.53033C4.42098 6.38968 4.5 6.19891 4.5 6C4.5 5.80109 4.42098 5.61032 4.28033 5.46967C4.13968 5.32902 3.94891 5.25 3.75 5.25H0.75V2.25ZM10.5 13.5H11.3783C11.5265 13.0803 11.7959 12.7141 12.1524 12.4475C12.5089 12.181 12.9364 12.0262 13.3808 12.0027C13.8253 11.9792 14.2667 12.088 14.6493 12.3154C15.0319 12.5428 15.3385 12.8786 15.5303 13.2803C15.6 13.2107 15.6553 13.128 15.693 13.037C15.7307 12.9461 15.7501 12.8485 15.75 12.75V9.75C15.75 9.15326 15.5129 8.58097 15.091 8.15901C14.669 7.73705 14.0967 7.5 13.5 7.5H10.5V13.5ZM5.25 14.25C5.25 14.0511 5.17098 13.8603 5.03033 13.7197C4.88968 13.579 4.69891 13.5 4.5 13.5C4.30109 13.5 4.11032 13.579 3.96967 13.7197C3.82902 13.8603 3.75 14.0511 3.75 14.25C3.75 14.4489 3.82902 14.6397 3.96967 14.7803C4.11032 14.921 4.30109 15 4.5 15C4.69891 15 4.88968 14.921 5.03033 14.7803C5.17098 14.6397 5.25 14.4489 5.25 14.25ZM12.9697 13.7197C12.8999 13.7892 12.8445 13.8719 12.8068 13.9629C12.7691 14.0539 12.7498 14.1515 12.75 14.25C12.75 14.4235 12.8101 14.5917 12.9201 14.7258C13.0302 14.86 13.1834 14.9518 13.3535 14.9857C13.5237 15.0196 13.7004 14.9934 13.8534 14.9117C14.0065 14.8299 14.1264 14.6976 14.1929 14.5373C14.2593 14.377 14.2681 14.1986 14.2177 14.0326C14.1674 13.8665 14.061 13.7231 13.9168 13.6266C13.7725 13.5302 13.5993 13.4868 13.4266 13.5038C13.2539 13.5207 13.0925 13.5971 12.9697 13.7197Z" fill="#27D26C"/>
</svg>
