<svg width="16" height="18" viewBox="0 0 16 18" fill="none" xmlns="http://www.w3.org/2000/svg">
<path d="M1.90967 1.91199L0.12793 5.55469H7.43764V0.960938H3.42082C2.78122 0.960938 2.19784 1.33059 1.90967 1.91199ZM8.56222 5.55469H15.8719L14.0902 1.91199C13.802 1.33059 13.2186 0.960938 12.579 0.960938H8.56222V5.55469ZM15.8719 6.70312H0.12793V14.7422C0.12793 16.0091 1.13653 17.0391 2.37707 17.0391H13.6228C14.8633 17.0391 15.8719 16.0091 15.8719 14.7422V6.70312Z" fill="#FB6B4F"/>
<path d="M11.2813 9.5974L6.90633 14.0791L4.90112 12.025L5.41519 11.4984L6.90633 13.0222L10.7673 9.0708L11.2813 9.5974Z" fill="white"/>
</svg>
