<svg width="83" height="83" viewBox="0 0 83 83" fill="none" xmlns="http://www.w3.org/2000/svg">
<path d="M35.69 48.97L26.7675 40.0475C26.0067 39.2867 25.0383 38.9062 23.8625 38.9062C22.6867 38.9062 21.7183 39.2867 20.9575 40.0475C20.1967 40.8083 19.8162 41.7767 19.8162 42.9525C19.8162 44.1283 20.1967 45.0967 20.9575 45.8575L32.785 57.685C33.615 58.515 34.5833 58.93 35.69 58.93C36.7967 58.93 37.765 58.515 38.595 57.685L62.0425 34.2375C62.8033 33.4767 63.1838 32.5083 63.1838 31.3325C63.1838 30.1567 62.8033 29.1883 62.0425 28.4275C61.2817 27.6667 60.3133 27.2862 59.1375 27.2862C57.9617 27.2862 56.9933 27.6667 56.2325 28.4275L35.69 48.97ZM41.5 83C35.7592 83 30.3642 81.9099 25.315 79.7298C20.2658 77.5496 15.8737 74.5935 12.1388 70.8612C8.40375 67.1262 5.44757 62.7342 3.2702 57.685C1.09283 52.6358 0.00276667 47.2408 0 41.5C0 35.7592 1.09007 30.3642 3.2702 25.315C5.45033 20.2658 8.40652 15.8737 12.1388 12.1387C15.8737 8.40375 20.2658 5.44757 25.315 3.2702C30.3642 1.09283 35.7592 0.00276667 41.5 0C47.2408 0 52.6358 1.09007 57.685 3.2702C62.7342 5.45033 67.1263 8.40652 70.8613 12.1387C74.5963 15.8737 77.5538 20.2658 79.7339 25.315C81.9141 30.3642 83.0028 35.7592 83 41.5C83 47.2408 81.9099 52.6358 79.7298 57.685C77.5497 62.7342 74.5935 67.1262 70.8613 70.8612C67.1263 74.5962 62.7342 77.5538 57.685 79.7339C52.6358 81.9141 47.2408 83.0028 41.5 83ZM41.5 74.7C50.7683 74.7 58.6187 71.4837 65.0512 65.0512C71.4837 58.6187 74.7 50.7683 74.7 41.5C74.7 32.2317 71.4837 24.3812 65.0512 17.9487C58.6187 11.5162 50.7683 8.3 41.5 8.3C32.2317 8.3 24.3812 11.5162 17.9487 17.9487C11.5162 24.3812 8.3 32.2317 8.3 41.5C8.3 50.7683 11.5162 58.6187 17.9487 65.0512C24.3812 71.4837 32.2317 74.7 41.5 74.7Z" fill="#87220F"/>
<path d="M82.9967 41.4983C82.9967 64.4172 64.4172 82.9967 41.4983 82.9967C18.5794 82.9967 0 64.4172 0 41.4983C0 18.5794 18.5794 0 41.4983 0C64.4172 0 82.9967 18.5794 82.9967 41.4983ZM8.16776 41.4983C8.16776 59.9063 23.0904 74.8289 41.4983 74.8289C59.9063 74.8289 74.8289 59.9063 74.8289 41.4983C74.8289 23.0904 59.9063 8.16776 41.4983 8.16776C23.0904 8.16776 8.16776 23.0904 8.16776 41.4983Z" fill="#F7B0A2"/>
</svg>
